<svg width="1024" height="1024" viewBox="0 0 1024 1024" fill="none" xmlns="http://www.w3.org/2000/svg">
<rect width="1024" height="1024" rx="150" fill="#346766"/>
<path d="M188.986 201.805H836V348.077H188.986V201.805Z" fill="#ffd863"/>
<path d="M238.828 462.941H328.847V504.326C343.108 488.258 360.559 475.338 380.086 466.39C399.478 457.895 420.453 453.621 441.621 453.853C463.007 453.516 484.062 459.166 502.41 470.165C521.081 481.878 536.147 498.533 545.94 518.285C559.298 498.323 577.39 481.983 598.6 470.724C619.614 459.742 643.02 454.138 666.726 454.412C690.413 453.911 713.763 460.088 734.106 472.239C752.424 482.878 767.009 498.919 775.866 518.168C786.002 548.208 790.31 579.908 788.56 611.565V822.126H697.726V639.877C700.322 611.437 695.086 582.828 682.587 557.153C677.458 550.081 670.633 544.414 662.742 540.672C654.85 536.929 646.145 535.233 637.426 535.738C622.555 535.553 608.022 540.179 595.992 548.927C583.501 558.101 574.036 570.801 568.812 585.396C561.659 609.635 558.636 634.907 559.868 660.15V822.196H469.08V648.103C470.088 624.614 467.672 601.104 461.907 578.312C458.451 565.441 450.976 554.011 440.573 545.688C430.536 538.656 418.46 535.134 406.219 535.668C391.575 535.633 377.308 540.314 365.53 549.021C352.904 558.533 343.361 571.558 338.093 586.468C330.909 611.094 327.832 636.736 328.987 662.364V822.126H238.828V462.941Z" fill="#ffd863"/>
</svg>
